<svg width="426" height="445" viewBox="0 0 426 445" fill="none" xmlns="http://www.w3.org/2000/svg">
<g clip-path="url(#clip0_2255_708)">
<path d="M90.1172 226.199V343.799C90.1172 351.359 94.0772 358.199 100.677 362.039L202.557 420.839C209.037 424.559 217.077 424.559 223.557 420.839L325.437 362.039C331.917 358.319 335.997 351.359 335.997 343.799V226.199C335.997 218.639 332.037 211.799 325.437 207.959L223.557 149.159C217.077 145.439 209.037 145.439 202.557 149.159L100.677 207.959C94.1972 211.679 90.2372 218.639 90.2372 226.199H90.1172Z" fill="#213147"/>
<path d="M235.196 307.802L220.676 347.642C220.316 348.722 220.316 349.922 220.676 351.122L245.636 419.642L274.556 402.962L239.876 307.802C239.036 305.642 236.036 305.642 235.196 307.802Z" fill="#12AAFF"/>
<path d="M264.353 240.841C263.513 238.681 260.513 238.681 259.673 240.841L245.153 280.681C244.793 281.761 244.793 282.961 245.153 284.161L286.073 396.361L314.993 379.681L264.353 240.961V240.841Z" fill="#12AAFF"/>
<path d="M212.999 153.6C213.719 153.6 214.439 153.84 215.039 154.2L325.199 217.8C326.519 218.52 327.239 219.96 327.239 221.4V348.6C327.239 350.04 326.399 351.48 325.199 352.2L215.039 415.8C214.439 416.16 213.719 416.4 212.999 416.4C212.279 416.4 211.559 416.16 210.959 415.8L100.799 352.2C99.4791 351.48 98.7591 350.04 98.7591 348.6V221.28C98.7591 219.84 99.5991 218.4 100.799 217.68L210.959 154.08C211.559 153.72 212.279 153.48 212.999 153.48V153.6ZM212.999 135C209.039 135 205.199 135.96 201.599 138L91.4391 201.6C84.3591 205.68 80.0391 213.12 80.0391 221.28V348.48C80.0391 356.64 84.3591 364.08 91.4391 368.16L201.599 431.76C205.079 433.8 209.039 434.76 212.999 434.76C216.959 434.76 220.799 433.8 224.399 431.76L334.559 368.16C341.639 364.08 345.959 356.64 345.959 348.48V221.28C345.959 213.12 341.639 205.68 334.559 201.6L224.279 138C220.799 135.96 216.839 135 212.879 135H212.999Z" fill="#9DCCED"/>
<path d="M140.039 396.481L150.239 368.641L170.639 385.561L151.559 403.081L140.039 396.481Z" fill="#213147"/>
<path d="M203.637 212.28H175.677C173.637 212.28 171.717 213.6 170.997 215.52L111.117 379.68L140.037 396.36L206.037 215.52C206.637 213.84 205.437 212.16 203.757 212.16L203.637 212.28Z" fill="white"/>
<path d="M252.595 212.28H224.635C222.595 212.28 220.675 213.6 219.955 215.52L151.555 402.96L180.475 419.64L254.875 215.52C255.475 213.84 254.275 212.16 252.595 212.16V212.28Z" fill="white"/>
</g>
<path d="M319.081 73.5858V94.3324H323.496V72.2524L346 65.5858L213 13.4258L80 65.5858L135.115 81.9058L137.19 79.7191C151.607 64.8391 180.654 55.5591 213 55.5591C245.346 55.5591 274.446 64.8391 288.81 79.7191L290.885 81.9058L319.081 73.5858Z" fill="#9DCCED"/>
<path d="M142.508 84.6798V132.68C155.01 119.72 181.876 110.76 212.998 110.76C244.12 110.76 270.986 119.72 283.488 132.68V84.6798C270.986 71.7197 244.12 62.7598 212.998 62.7598C181.876 62.7598 155.01 71.7197 142.508 84.6798Z" fill="#9DCCED"/>
<path d="M317.589 101.533L314.609 132.573H327.963L324.983 101.533H317.589Z" fill="#9DCCED"/>
<defs>
<clipPath id="clip0_2255_708">
<rect width="300" height="300" fill="white" transform="translate(63 135)"/>
</clipPath>
</defs>
</svg>
