<svg width="5670" height="932" viewBox="0 0 5670 932" fill="none" xmlns="http://www.w3.org/2000/svg">
<path d="M511.32 600L573.26 334H687.26L749.2 600H692.58L679.28 539.2H581.24L567.94 600H511.32ZM589.22 498.54H671.3L644.7 377.7H615.82L589.22 498.54ZM774.393 600V429L816.193 387.2H925.633V435.84H828.353V600H774.393ZM952.889 600V334H1006.85V387.2H1108.31L1151.63 430.52V556.68L1108.31 600H952.889ZM1006.85 554.4H1097.67V432.8H1006.85V554.4ZM1188.53 600V387.2H1242.49V600H1188.53ZM1188.53 365.16V327.16H1242.49V365.16H1188.53ZM1282.05 353L1336.01 334V394.8H1418.09V440.4H1336.01V554.4H1418.09V600H1323.85L1282.05 558.2V353ZM1445.33 600V429L1487.13 387.2H1596.57V435.84H1499.29V600H1445.33ZM1819.91 387.2V600H1665.63L1623.83 558.2V387.2H1677.79V552.88H1765.95V387.2H1819.91ZM1859.47 387.2H2125.47L2169.55 431.28V600H2116.35V432.04H2040.73V600H1988.29V432.04H1912.67V600H1859.47V387.2ZM2310.79 600V552.88H2458.23V491.32L2306.99 478.78V373.52L2346.51 334H2508.39V381.12H2360.95V438.88L2512.19 451.42V560.48L2472.67 600H2310.79ZM2550.82 353L2604.78 334V394.8H2686.86V440.4H2604.78V554.4H2686.86V600H2592.62L2550.82 558.2V353ZM2709.92 653.2V607.6H2806.06L2817.08 569.6H2751.34L2697.76 387.2H2752.48L2791.24 525.52H2827.34L2864.58 387.2H2918.92L2844.06 653.2H2709.92ZM2941.95 600V334H2995.91V600H2941.95ZM3231.55 387.2V600H3077.27L3035.47 558.2V387.2H3089.43V552.88H3177.59V387.2H3231.55ZM3268.45 600V555.92H3405.25V509.18H3268.45V427.48L3308.73 387.2H3459.21V431.28H3322.41V475.74H3459.21V560.86L3420.07 600H3268.45ZM3594.71 558.96V334H3648.67V551.36H3748.23V334H3802.19V558.96L3761.15 600H3635.75L3594.71 558.96ZM3841.85 600V387.2H3996.13L4037.93 429V600H3983.97V434.32H3895.81V600H3841.85ZM4077.5 600V387.2H4131.46V600H4077.5ZM4077.5 365.16V327.16H4131.46V365.16H4077.5ZM4206.35 600L4154.67 387.2H4209.39L4245.87 554.4H4277.79L4314.27 387.2H4368.23L4316.55 600H4206.35ZM4388.78 559.72V427.48L4429.06 387.2H4578.78V506.52H4442.74V554.4H4571.18V600H4429.06L4388.78 559.72ZM4442.74 476.88L4531.66 473.08V429.76H4442.74V476.88ZM4615.58 600V429L4657.38 387.2H4766.82V435.84H4669.54V600H4615.58ZM4791.42 600V555.92H4928.22V509.18H4791.42V427.48L4831.7 387.2H4982.18V431.28H4845.38V475.74H4982.18V560.86L4943.04 600H4791.42ZM5018.96 600V387.2H5072.92V600H5018.96ZM5018.96 365.16V327.16H5072.92V365.16H5018.96ZM5112.48 353L5166.44 334V394.8H5248.52V440.4H5166.44V554.4H5248.52V600H5154.28L5112.48 558.2V353ZM5271.58 653.2V607.6H5367.72L5378.74 569.6H5313L5259.42 387.2H5314.14L5352.9 525.52H5389L5426.24 387.2H5480.58L5405.72 653.2H5271.58Z" fill="white"/>
<g clip-path="url(#clip0_2252_604)">
<path d="M151.117 407.199V524.799C151.117 532.359 155.077 539.199 161.677 543.039L263.557 601.839C270.037 605.559 278.077 605.559 284.557 601.839L386.437 543.039C392.917 539.319 396.997 532.359 396.997 524.799V407.199C396.997 399.639 393.037 392.799 386.437 388.959L284.557 330.159C278.077 326.439 270.037 326.439 263.557 330.159L161.677 388.959C155.197 392.679 151.237 399.639 151.237 407.199H151.117Z" fill="#213147"/>
<path d="M296.196 488.802L281.676 528.642C281.316 529.722 281.316 530.922 281.676 532.122L306.636 600.642L335.556 583.962L300.876 488.802C300.036 486.642 297.036 486.642 296.196 488.802Z" fill="#12AAFF"/>
<path d="M325.353 421.841C324.513 419.681 321.513 419.681 320.673 421.841L306.153 461.681C305.793 462.761 305.793 463.961 306.153 465.161L347.073 577.361L375.993 560.681L325.353 421.961V421.841Z" fill="#12AAFF"/>
<path d="M273.999 334.6C274.719 334.6 275.439 334.84 276.039 335.2L386.199 398.8C387.519 399.52 388.239 400.96 388.239 402.4V529.6C388.239 531.04 387.399 532.48 386.199 533.2L276.039 596.8C275.439 597.16 274.719 597.4 273.999 597.4C273.279 597.4 272.559 597.16 271.959 596.8L161.799 533.2C160.479 532.48 159.759 531.04 159.759 529.6V402.28C159.759 400.84 160.599 399.4 161.799 398.68L271.959 335.08C272.559 334.72 273.279 334.48 273.999 334.48V334.6ZM273.999 316C270.039 316 266.199 316.96 262.599 319L152.439 382.6C145.359 386.68 141.039 394.12 141.039 402.28V529.48C141.039 537.64 145.359 545.08 152.439 549.16L262.599 612.76C266.079 614.8 270.039 615.76 273.999 615.76C277.959 615.76 281.799 614.8 285.399 612.76L395.559 549.16C402.639 545.08 406.959 537.64 406.959 529.48V402.28C406.959 394.12 402.639 386.68 395.559 382.6L285.279 319C281.799 316.96 277.839 316 273.879 316H273.999Z" fill="#9DCCED"/>
<path d="M201.039 577.481L211.239 549.641L231.639 566.561L212.559 584.081L201.039 577.481Z" fill="#213147"/>
<path d="M264.637 393.28H236.677C234.637 393.28 232.717 394.6 231.997 396.52L172.117 560.68L201.037 577.36L267.037 396.52C267.637 394.84 266.437 393.16 264.757 393.16L264.637 393.28Z" fill="white"/>
<path d="M313.595 393.28H285.635C283.595 393.28 281.675 394.6 280.955 396.52L212.555 583.96L241.475 600.64L315.875 396.52C316.475 394.84 315.275 393.16 313.595 393.16V393.28Z" fill="white"/>
</g>
<path d="M380.081 254.586V275.332H384.496V253.252L407 246.586L274 194.426L141 246.586L196.115 262.906L198.19 260.719C212.607 245.839 241.654 236.559 274 236.559C306.346 236.559 335.446 245.839 349.81 260.719L351.885 262.906L380.081 254.586Z" fill="#9DCCED"/>
<path d="M203.508 265.68V313.68C216.01 300.72 242.876 291.76 273.998 291.76C305.12 291.76 331.986 300.72 344.488 313.68V265.68C331.986 252.72 305.12 243.76 273.998 243.76C242.876 243.76 216.01 252.72 203.508 265.68Z" fill="#9DCCED"/>
<path d="M378.589 282.533L375.609 313.573H388.963L385.983 282.533H378.589Z" fill="#9DCCED"/>
<defs>
<clipPath id="clip0_2252_604">
<rect width="300" height="300" fill="white" transform="translate(124 316)"/>
</clipPath>
</defs>
</svg>
